<svg width="27" height="23" viewBox="0 0 27 23" fill="none" xmlns="http://www.w3.org/2000/svg">
<path d="M12 0C11.8557 2.05349e-05 11.7129 0.0317939 11.5798 0.0934808C11.4466 0.155168 11.3259 0.245543 11.2244 0.359375L0.221591 11.013C0.152873 11.0692 0.0970222 11.1426 0.0585342 11.2272C0.0200462 11.3118 -3.28112e-06 11.4052 4.02754e-10 11.5C4.02755e-10 11.6605 0.0574674 11.8145 0.15976 11.928C0.262052 12.0415 0.400791 12.1053 0.545455 12.1053H3.27273V21.7895C3.27273 22.4577 3.76145 23 4.36364 23H8.72727C9.32945 23 9.81818 22.4577 9.81818 21.7895V14.5263H14.1818V21.7895C14.1818 22.4577 14.6705 23 15.2727 23H19.6364C20.2385 23 20.7273 22.4577 20.7273 21.7895V12.1053H23.4545C23.5992 12.1053 23.7379 12.0415 23.8402 11.928C23.9425 11.8145 26.5 0.254007 26.5 0.0934808C26.5 -0.00128379 23.98 11.3118 23.9415 11.2272C23.903 11.1426 23.8471 11.0692 23.7784 11.013L20.7273 0.366468H12.782C12.7798 0.364094 12.7777 0.36173 12.7756 0.359375C12.6741 0.245543 12.5534 0.155168 12.4202 0.0934808C12.2871 0.0317939 12.1443 2.05349e-05 12 0Z" fill="#484B6A"/>
</svg>
