<svg width="24" height="23" viewBox="0 0 24 23" fill="none" xmlns="http://www.w3.org/2000/svg">
<path d="M12 2.56061V0.560426C12 0.0575858 11.19 -0.188247 10.725 0.169328L6.525 3.28694C6.225 3.51042 6.225 3.85683 6.525 4.08031L10.71 7.19792C11.19 7.54432 12 7.29849 12 6.79565V4.79546C16.965 4.79546 21 7.80133 21 11.5C21 12.3828 20.775 13.2432 20.34 14.0142C20.115 14.4165 20.28 14.8746 20.685 15.1763C21.45 15.7462 22.74 15.5451 23.145 14.7964C23.7 13.7795 24 12.6621 24 11.5C24 6.56099 18.63 2.56061 12 2.56061ZM12 18.2045C7.035 18.2045 3 15.1987 3 11.5C3 10.6172 3.225 9.75682 3.66 8.9858C3.885 8.58353 3.72 8.12538 3.315 7.82368C2.55 7.25379 1.26 7.45493 0.855 8.2036C0.3 9.22046 0 10.3379 0 11.5C0 16.439 5.37 20.4394 12 20.4394V22.4396C12 22.9424 12.81 23.1882 13.275 22.8307L17.46 19.7131C17.76 19.4896 17.76 19.1432 17.46 18.9197L13.275 15.8021C12.81 15.4557 12 15.7015 12 16.2044V18.2045Z" fill="#121212" fill-opacity="0.8"/>
</svg>
