<svg width="24" height="23" viewBox="0 0 24 23" fill="none" xmlns="http://www.w3.org/2000/svg">
<path d="M21.3333 2.3H20V1.15C20 0.5175 19.4 0 18.6667 0C17.9333 0 17.3333 0.5175 17.3333 1.15V2.3H6.66667V1.15C6.66667 0.5175 6.06667 0 5.33333 0C4.6 0 4 0.5175 4 1.15V2.3H2.66667C1.18667 2.3 0.0133333 3.335 0.0133333 4.6L0 20.7C0 21.965 1.18667 23 2.66667 23H21.3333C22.8 23 24 21.965 24 20.7V4.6C24 3.335 22.8 2.3 21.3333 2.3ZM21.3333 19.55C21.3333 20.1825 20.7333 20.7 20 20.7H4C3.26667 20.7 2.66667 20.1825 2.66667 19.55V8.05H21.3333V19.55ZM5.33333 10.35H8V12.65H5.33333V10.35ZM10.6667 10.35H13.3333V12.65H10.6667V10.35ZM16 10.35H18.6667V12.65H16V10.35Z" fill="#121212" fill-opacity="0.8"/>
</svg>
