<svg width="24" height="23" viewBox="0 0 24 23" fill="none" xmlns="http://www.w3.org/2000/svg">
<path d="M21.1688 12.627C21.2182 12.259 21.2552 11.891 21.2552 11.5C21.2552 11.109 21.2182 10.741 21.1688 10.373L23.7719 8.4755C24.0063 8.303 24.068 7.9925 23.9199 7.7395L21.4526 3.7605C21.3046 3.5075 20.9715 3.4155 20.7001 3.5075L17.6282 4.6575C16.9867 4.1975 16.2959 3.818 15.5433 3.5305L15.0745 0.483C15.0375 0.207 14.7785 0 14.4701 0H9.5354C9.22698 0 8.96791 0.207 8.9309 0.483L8.46211 3.5305C7.70957 3.818 7.01872 4.209 6.37722 4.6575L3.30539 3.5075C3.02165 3.404 2.7009 3.5075 2.55286 3.7605L0.0855318 7.7395C-0.0748444 7.9925 -0.00082446 8.303 0.233572 8.4755L2.8366 10.373C2.78726 10.741 2.75025 11.1205 2.75025 11.5C2.75025 11.8795 2.78726 12.259 2.8366 12.627L0.233572 14.5245C-0.00082446 14.697 -0.0625078 15.0075 0.0855318 15.2605L2.55286 19.2395C2.7009 19.4925 3.03399 19.5845 3.30539 19.4925L6.37722 18.3425C7.01872 18.8025 7.70957 19.182 8.46211 19.4695L8.9309 22.517C8.96791 22.793 9.22698 23 9.5354 23H14.4701C14.7785 23 15.0375 22.793 15.0745 22.517L15.5433 19.4695C16.2959 19.182 16.9867 18.791 17.6282 18.3425L20.7001 19.4925C20.9838 19.596 21.3046 19.4925 21.4526 19.2395L23.9199 15.2605C24.068 15.0075 24.0063 14.697 23.7719 14.5245L21.1688 12.627ZM12.0027 15.525C9.62175 15.525 7.6849 13.7195 7.6849 11.5C7.6849 9.2805 9.62175 7.475 12.0027 7.475C14.3837 7.475 16.3205 9.2805 16.3205 11.5C16.3205 13.7195 14.3837 15.525 12.0027 15.525Z" fill="#121212" fill-opacity="0.8"/>
</svg>
